<svg width="83" height="13" viewBox="0 0 83 13" fill="none" xmlns="http://www.w3.org/2000/svg">
<g id="Component 9" opacity="0.5" clip-path="url(#clip0_28_199)">
<path id="Vector" d="M27.2404 0.767253V7.24211C27.2404 8.67274 28.0379 9.51749 29.422 9.51749C30.9702 9.51749 31.8601 8.5789 31.8601 6.77241V0.767253H34.7458V11.9098H31.8622V10.619C31.1825 11.6746 30.0795 12.1909 28.555 12.1909C25.9747 12.1917 24.3564 10.315 24.3564 7.59354V0.767253H27.2404ZM58.2297 0.556429C61.5143 0.562901 63.8312 3.19407 63.8233 6.29333C63.8239 6.5998 63.7999 6.90582 63.7516 7.20846L55.2603 7.1926C55.5858 8.53003 56.6865 9.49387 58.3524 9.49743C59.3607 9.49743 60.4407 9.12594 61.0989 8.28264L63.0667 9.86018C62.0548 11.2895 60.27 12.1307 58.371 12.127C55.0185 12.1157 52.4427 9.60065 52.4484 6.33992C52.4548 3.2198 54.688 0.549957 58.2297 0.556429ZM76.5392 0.556429C78.2983 0.556429 79.3073 1.0957 79.9871 2.12847L80.2573 0.765796H82.8956V11.9098H80.2573L79.9168 10.7624C79.143 11.6071 78.1807 12.1249 76.5392 12.1249C74.0054 12.1213 71.1199 9.89254 71.1199 6.42099C71.1199 2.92581 73.9582 0.556429 76.5392 0.556429ZM17.4217 0.556429C20.729 0.556429 23.3565 3.13809 23.3565 6.32714C23.3565 9.49387 20.729 12.1213 17.4217 12.1213C14.1373 12.1213 11.5105 9.49095 11.5105 6.32714C11.5105 3.13647 14.1373 0.556429 17.4217 0.556429ZM47.0923 0.485399C48.9525 0.485399 50.6004 1.30944 51.4954 2.83973L48.954 4.18428C48.5775 3.43062 47.8711 3.00687 46.9762 3.00687C46.1057 3.00687 45.681 3.31299 45.681 3.83075C45.681 5.57332 51.7557 4.46694 51.7557 8.63552C51.7557 10.802 49.9901 12.1199 47.1412 12.1199C44.7158 12.1178 43.0205 11.3173 42.1736 9.48092L44.7382 8.13848C45.1619 9.05717 46.0094 9.59855 47.2106 9.59855C48.3171 9.59855 48.7409 9.24583 48.7409 8.75089C48.7409 6.95816 42.6663 8.04464 42.6663 3.94627C42.6663 1.68595 44.6442 0.485399 47.0923 0.485399ZM5.96584 0.532806C6.95337 0.525897 7.9271 0.764804 8.79929 1.228C9.67148 1.6912 10.4147 2.36412 10.962 3.18614L8.49945 4.61466C8.21452 4.20746 7.83526 3.87527 7.39406 3.64648C6.95286 3.4177 6.46283 3.29911 5.96584 3.30086C4.27699 3.30086 2.89296 4.70851 2.89296 6.32714C2.89296 7.94562 4.27699 9.35326 5.96584 9.35326C6.48625 9.35666 6.99884 9.22662 7.45468 8.97554C7.91052 8.72446 8.2944 8.36074 8.56967 7.91908L11.008 9.37333C10.4674 10.2194 9.72133 10.9149 8.83943 11.3949C7.95752 11.875 6.96845 12.1239 5.96439 12.1186C2.68149 12.1213 0.0546875 9.49095 0.0546875 6.32714C0.0546875 3.11382 2.68149 0.532806 5.96584 0.532806ZM42.1565 0.479736L41.6242 3.17255C41.5263 3.16187 41.4276 3.15637 41.3289 3.15605C39.7813 3.15961 38.8914 4.09966 38.8958 5.9055L38.9115 11.909L36.0266 11.9155L36.0022 0.773725L38.887 0.767253V2.05808C39.559 1.00963 40.6505 0.491871 42.1565 0.479736V0.479736ZM71.1465 0.487664L70.6116 3.17757C70.5134 3.16722 70.4148 3.16172 70.3161 3.16106C68.77 3.16106 67.8778 4.09901 67.8778 5.9055V11.9098H64.9929V0.766605H67.8778V2.05727C68.5525 1.01092 69.6427 0.495431 71.1465 0.487503V0.487664ZM17.4217 3.32448C15.733 3.32448 14.349 4.73213 14.349 6.32714C14.349 7.94562 15.733 9.35326 17.4217 9.35326C19.1371 9.35326 20.5182 7.94562 20.5182 6.32714C20.5182 4.73229 19.1342 3.32448 17.4217 3.32448ZM77.0325 3.32561C76.6276 3.32712 76.2268 3.4084 75.8533 3.56481C75.4797 3.72122 75.1406 3.9497 74.8554 4.23719C74.5701 4.52458 74.3442 4.86536 74.1907 5.24006C74.0371 5.61476 73.9589 6.01605 73.9605 6.42099C73.9605 7.9694 75.3445 9.35326 77.034 9.35326C78.7442 9.35326 80.1276 7.96924 80.1276 6.39736C80.1244 5.57961 79.7965 4.7966 79.216 4.22056C78.6356 3.64452 77.8501 3.3226 77.0324 3.32561H77.0325ZM58.2019 3.18404C56.8645 3.18404 55.7845 3.97718 55.3599 5.17255L60.919 5.18258C60.7569 4.05662 59.5858 3.18598 58.2019 3.18404Z" fill="#4D4D4D"/>
</g>
<defs>
<clipPath id="clip0_28_199">
<rect width="82.841" height="11.8113" fill="white" transform="translate(0.0546875 0.479736)"/>
</clipPath>
</defs>
</svg>
