<svg width="51" height="31" viewBox="0 0 51 31" fill="none" xmlns="http://www.w3.org/2000/svg">
<g id="Component 8" opacity="0.5">
<path id="Subtract" fill-rule="evenodd" clip-rule="evenodd" d="M5.43348 1.40916L32.8584 1.40282L31.8886 5.93341L49.4438 5.92935L44.7569 28.6632L22.5096 28.6683L23.7217 22.7624L0.746255 22.7677L5.43348 1.40916ZM26.5818 6.06528L24.6595 6.06528L23.8407 10.7487C23.3067 9.80132 22.3455 9.31867 20.9571 9.31867C20.0494 9.31867 19.2306 9.56893 18.483 10.0337C17.7354 10.4985 17.148 11.1599 16.7208 11.9822C16.2936 12.8044 16.08 13.734 16.08 14.735C16.08 15.4858 16.2224 16.1651 16.5428 16.7729C16.8632 17.3806 17.3082 17.8454 17.8778 18.1851C18.4474 18.5247 19.0882 18.6856 19.8358 18.6856C20.441 18.6856 20.9927 18.5783 21.4911 18.3459C21.9717 18.1136 22.3811 17.7918 22.7371 17.3806L22.7549 18.5783L24.3747 18.5783L26.5818 6.06528ZM21.9005 16.5584C21.4199 16.898 20.8681 17.0589 20.2452 17.0589C19.5688 17.0589 19.017 16.8444 18.6254 16.3975C18.2338 15.9506 18.038 15.3071 18.038 14.4848C18.038 13.9127 18.1626 13.3407 18.4118 12.8044C18.661 12.2682 19.0348 11.8213 19.5154 11.4816C19.9782 11.142 20.53 10.9632 21.1707 10.9632C21.8471 10.9632 22.3811 11.1956 22.7727 11.6246C23.1643 12.0715 23.3779 12.6972 23.3779 13.5195C23.3779 14.1094 23.2355 14.6814 22.9863 15.2177C22.7371 15.7718 22.3633 16.2187 21.9005 16.5584ZM13.1532 9.78344C12.5659 9.47955 11.8895 9.31867 11.1063 9.31867C10.0739 9.31867 9.16613 9.56893 8.40075 10.0337C7.63536 10.4985 7.04797 11.142 6.63858 11.9464C6.22919 12.7687 6.03339 13.6625 6.03339 14.6457C6.03339 15.4322 6.19359 16.1293 6.53178 16.7371C6.86998 17.3449 7.35057 17.8275 7.99135 18.1672C8.63214 18.5247 9.36193 18.6856 10.2163 18.6856C11.3021 18.6856 12.2277 18.4174 13.0109 17.8454C13.7762 17.2913 14.2924 16.5047 14.5594 15.5037L12.6371 15.5037C12.3879 16.04 12.0853 16.4511 11.7293 16.7192C11.3733 16.9874 10.8749 17.1125 10.2519 17.1125C9.53992 17.1125 8.98813 16.898 8.57874 16.4332C8.15155 15.9685 7.95575 15.4322 7.95575 14.7887C7.95575 14.6635 7.95575 14.5563 7.97355 14.449L14.8086 14.449C14.9154 14.02 14.9688 13.5374 14.9688 13.0011C14.9688 12.286 14.8086 11.6425 14.506 11.0884C14.1856 10.5342 13.7406 10.1052 13.1532 9.78344ZM12.9575 13.0011L8.27615 13.0011C8.43634 12.3754 8.75674 11.857 9.25513 11.4638C9.73572 11.0705 10.3053 10.8739 10.9639 10.8739C11.5691 10.8739 12.0675 11.0526 12.4235 11.3744C12.7795 11.6961 12.9753 12.1609 12.9753 12.7508C12.9753 12.8136 12.9691 12.8703 12.9641 12.9173L12.9641 12.9173L12.9641 12.9173L12.9641 12.9173L12.9641 12.9173L12.9641 12.9173L12.9641 12.9173C12.9605 12.9505 12.9575 12.9789 12.9575 13.0011ZM33.4327 18.0247L29.7892 10.1717L33.8143 10.0843L36.1337 15.151L40.2924 10.0181L44.2487 9.97767L37.8286 17.9798L41.6841 26.2008L37.6122 26.2424L35.1274 20.8302L30.6714 26.3133L26.7383 26.3535L33.4327 18.0247Z" fill="#4D4D4D"/>
</g>
</svg>
