<svg width="37" height="34" viewBox="0 0 37 34" fill="none" xmlns="http://www.w3.org/2000/svg">
<g id="Component 5">
<path id="Line 6" d="M6.16454 29.481C3.38167 24.7801 2.06321 18.2572 1.79168 17.6276C1.52015 16.9981 8.95326 24.6975 9.60566 26.2096C10.2581 27.7217 7.18003 16.8398 5.43558 13.0765" stroke="#FF6868" stroke-width="1.74555" stroke-linecap="round"/>
<path id="Line 8" d="M28.0918 3.71864C28.4402 7.85061 27.9343 18.0004 27.5058 17.4831C27.0772 16.9657 23.068 6.06541 23.1072 6.74969C23.1464 7.43397 22.9835 17.5431 23.1506 19.381C23.3177 21.219 18.2326 12.6655 16.4689 5.90079" stroke="#FF6868" stroke-width="1.74555" stroke-linecap="round"/>
<path id="Line 7" d="M14.4938 10.6759C8.90936 14.1954 9.04514 14.5101 8.86557 14.9604C8.686 15.4107 10.495 18.7377 10.7666 19.3672M19.4697 20.4775C18.6594 21.1989 13.5261 24.8976 12.9392 24.4036C12.3523 23.9096 11.0382 19.9968 10.7666 19.3672M10.7666 19.3672C11.3594 18.9035 13.8523 16.4686 16.5306 15.3974" stroke="#FF6868" stroke-width="1.74555" stroke-linecap="round" stroke-linejoin="round"/>
<path id="Line 9" d="M16.601 29.5647C17.228 29.8159 21.722 32.1228 24.2704 32.6116C26.8187 33.1004 22.1461 29.4203 19.8377 24.069" stroke="#FF6868" stroke-width="1.74555" stroke-linecap="round"/>
<path id="Line 10" d="M31.308 1.26857C33.8988 6.30181 34.8315 9.04912 35.2065 13.7721" stroke="#FF6868" stroke-width="1.74555" stroke-linecap="round"/>
<path id="Line 11" d="M35.3433 16.4951C35.1834 16.5606 35.2017 16.5975 35.3336 16.6634" stroke="#FF6868" stroke-width="1.74555" stroke-linecap="round"/>
</g>
</svg>
