<svg width="319" height="26" viewBox="0 0 319 26" fill="none" xmlns="http://www.w3.org/2000/svg">
<g clip-path="url(#clip0_32_419)">
<path d="M3.06332 26V14.7385H0V10.6838H3.06332V7.2206C3.06332 4.49917 4.87284 2 9.04235 2C10.7305 2 11.9788 2.15732 11.9788 2.15732L11.8805 5.9437C11.8805 5.9437 10.6074 5.93166 9.21814 5.93166C7.71455 5.93166 7.47365 6.60522 7.47365 7.72316V10.6838H12L11.8031 14.7385H7.47365V26H3.06332Z" fill="#A3A3A3"/>
</g>
<path fill-rule="evenodd" clip-rule="evenodd" d="M62.465 3.066C63.638 3.012 64.012 3 67 3C69.988 3 70.362 3.013 71.534 3.066C72.706 3.119 73.506 3.306 74.206 3.577C74.939 3.854 75.604 4.287 76.154 4.847C76.714 5.396 77.146 6.06 77.422 6.794C77.694 7.494 77.88 8.294 77.934 9.464C77.988 10.639 78 11.013 78 14C78 16.988 77.987 17.362 77.934 18.535C77.881 19.705 77.694 20.505 77.422 21.205C77.146 21.9391 76.7133 22.6042 76.154 23.154C75.604 23.714 74.939 24.146 74.206 24.422C73.506 24.694 72.706 24.88 71.536 24.934C70.362 24.988 69.988 25 67 25C64.012 25 63.638 24.987 62.465 24.934C61.295 24.881 60.495 24.694 59.795 24.422C59.0609 24.146 58.3958 23.7133 57.846 23.154C57.2864 22.6047 56.8533 21.9399 56.577 21.206C56.306 20.506 56.12 19.706 56.066 18.536C56.012 17.361 56 16.987 56 14C56 11.012 56.013 10.638 56.066 9.466C56.119 8.294 56.306 7.494 56.577 6.794C56.8537 6.06008 57.2871 5.39531 57.847 4.846C58.396 4.2865 59.0605 3.85344 59.794 3.577C60.494 3.306 61.294 3.12 62.464 3.066H62.465ZM71.445 5.046C70.285 4.993 69.937 4.982 67 4.982C64.063 4.982 63.715 4.993 62.555 5.046C61.482 5.095 60.9 5.274 60.512 5.425C59.999 5.625 59.632 5.862 59.247 6.247C58.882 6.60205 58.6012 7.03428 58.425 7.512C58.274 7.9 58.095 8.482 58.046 9.555C57.993 10.715 57.982 11.063 57.982 14C57.982 16.937 57.993 17.285 58.046 18.445C58.095 19.518 58.274 20.1 58.425 20.488C58.601 20.965 58.882 21.398 59.247 21.753C59.602 22.118 60.035 22.399 60.512 22.575C60.9 22.726 61.482 22.905 62.555 22.954C63.715 23.007 64.062 23.018 67 23.018C69.938 23.018 70.285 23.007 71.445 22.954C72.518 22.905 73.1 22.726 73.488 22.575C74.001 22.375 74.368 22.138 74.753 21.753C75.118 21.398 75.399 20.965 75.575 20.488C75.726 20.1 75.905 19.518 75.954 18.445C76.007 17.285 76.018 16.937 76.018 14C76.018 11.063 76.007 10.715 75.954 9.555C75.905 8.482 75.726 7.9 75.575 7.512C75.375 6.999 75.138 6.632 74.753 6.247C74.3979 5.88207 73.9657 5.60121 73.488 5.425C73.1 5.274 72.518 5.095 71.445 5.046ZM65.595 17.391C66.3797 17.7176 67.2534 17.7617 68.0669 17.5157C68.8805 17.2697 69.5834 16.7489 70.0556 16.0422C70.5278 15.3356 70.7401 14.4869 70.656 13.6411C70.572 12.7953 70.197 12.005 69.595 11.405C69.2112 11.0215 68.7472 10.7278 68.2363 10.5451C67.7255 10.3625 67.1804 10.2954 66.6405 10.3486C66.1006 10.4019 65.5792 10.5742 65.1138 10.8531C64.6485 11.1321 64.2507 11.5107 63.9493 11.9619C63.6479 12.413 63.4502 12.9253 63.3705 13.462C63.2908 13.9986 63.3312 14.5463 63.4885 15.0655C63.6459 15.5847 63.9165 16.0626 64.2807 16.4647C64.645 16.8668 65.0938 17.1832 65.595 17.391ZM63.002 10.002C63.527 9.47697 64.1503 9.0605 64.8363 8.77636C65.5223 8.49222 66.2575 8.34597 67 8.34597C67.7425 8.34597 68.4777 8.49222 69.1637 8.77636C69.8497 9.0605 70.473 9.47697 70.998 10.002C71.523 10.527 71.9395 11.1503 72.2236 11.8363C72.5078 12.5223 72.654 13.2575 72.654 14C72.654 14.7425 72.5078 15.4777 72.2236 16.1637C71.9395 16.8497 71.523 17.473 70.998 17.998C69.9377 19.0583 68.4995 19.654 67 19.654C65.5005 19.654 64.0623 19.0583 63.002 17.998C61.9417 16.9377 61.346 15.4995 61.346 14C61.346 12.5005 61.9417 11.0623 63.002 10.002ZM73.908 9.188C74.0381 9.06527 74.1423 8.91768 74.2143 8.75397C74.2863 8.59027 74.3248 8.41377 74.3274 8.23493C74.33 8.05609 74.2967 7.87855 74.2295 7.71281C74.1622 7.54707 74.0624 7.39651 73.936 7.27004C73.8095 7.14357 73.6589 7.04376 73.4932 6.97652C73.3275 6.90928 73.1499 6.87598 72.9711 6.87858C72.7922 6.88119 72.6157 6.91965 72.452 6.9917C72.2883 7.06374 72.1407 7.1679 72.018 7.298C71.7793 7.55103 71.6486 7.88712 71.6537 8.23493C71.6588 8.58274 71.7992 8.91488 72.0452 9.16084C72.2911 9.40681 72.6233 9.54723 72.9711 9.5523C73.3189 9.55737 73.655 9.42669 73.908 9.188Z" fill="#A3A3A3"/>
<path fill-rule="evenodd" clip-rule="evenodd" d="M146 3.838C146 3.35053 146.194 2.88303 146.538 2.53834C146.883 2.19365 147.351 2 147.838 2H166.16C166.402 1.99961 166.641 2.04687 166.864 2.13907C167.087 2.23127 167.29 2.36661 167.461 2.53734C167.632 2.70807 167.768 2.91083 167.86 3.13401C167.953 3.3572 168 3.59643 168 3.838V22.16C168 22.4016 167.953 22.6409 167.861 22.8642C167.768 23.0875 167.633 23.2904 167.462 23.4613C167.291 23.6322 167.088 23.7678 166.865 23.8602C166.642 23.9526 166.403 24.0001 166.161 24H147.838C147.597 24 147.357 23.9524 147.134 23.86C146.911 23.7676 146.709 23.6321 146.538 23.4613C146.367 23.2905 146.232 23.0878 146.14 22.8647C146.047 22.6416 146 22.4025 146 22.161V3.838ZM154.708 10.388H157.687V11.884C158.117 11.024 159.217 10.25 160.87 10.25C164.039 10.25 164.79 11.963 164.79 15.106V20.928H161.583V15.822C161.583 14.032 161.153 13.022 160.061 13.022C158.546 13.022 157.916 14.111 157.916 15.822V20.928H154.708V10.388ZM149.208 20.791H152.416V10.25H149.208V20.79V20.791ZM152.875 6.812C152.881 7.08668 152.832 7.35979 152.731 7.61532C152.63 7.87084 152.479 8.10364 152.287 8.30003C152.095 8.49643 151.866 8.65248 151.612 8.75901C151.359 8.86554 151.087 8.92042 150.813 8.92042C150.538 8.92042 150.266 8.86554 150.013 8.75901C149.759 8.65248 149.53 8.49643 149.338 8.30003C149.146 8.10364 148.995 7.87084 148.894 7.61532C148.793 7.35979 148.744 7.08668 148.75 6.812C148.762 6.27286 148.984 5.75979 149.37 5.38269C149.755 5.00558 150.273 4.79442 150.813 4.79442C151.352 4.79442 151.87 5.00558 152.255 5.38269C152.641 5.75979 152.863 6.27286 152.875 6.812Z" fill="#A3A3A3"/>
<path d="M257.643 4.93659C256.808 5.30659 255.911 5.55659 254.968 5.66959C255.941 5.08738 256.669 4.17105 257.016 3.09159C256.102 3.63458 255.101 4.01678 254.058 4.22159C253.356 3.47245 252.427 2.97591 251.414 2.80906C250.402 2.64221 249.362 2.81438 248.457 3.29884C247.552 3.7833 246.833 4.55295 246.41 5.48829C245.988 6.42363 245.886 7.47234 246.12 8.47159C244.268 8.37858 242.456 7.89714 240.801 7.05849C239.147 6.21985 237.688 5.04275 236.518 3.60359C236.118 4.29359 235.888 5.09359 235.888 5.94559C235.888 6.71258 236.076 7.46783 236.438 8.14432C236.799 8.82081 237.322 9.39763 237.96 9.82359C237.22 9.80005 236.497 9.60017 235.85 9.24059V9.30059C235.85 10.3763 236.222 11.419 236.903 12.2516C237.584 13.0842 238.533 13.6555 239.587 13.8686C238.901 14.0543 238.181 14.0817 237.483 13.9486C237.781 14.8742 238.36 15.6836 239.14 16.2635C239.921 16.8434 240.863 17.1648 241.835 17.1826C240.185 18.478 238.147 19.1807 236.049 19.1776C235.677 19.1777 235.306 19.156 234.937 19.1126C237.066 20.4818 239.545 21.2084 242.077 21.2056C250.647 21.2056 255.332 14.1076 255.332 7.95159C255.332 7.75159 255.327 7.54959 255.318 7.34959C256.229 6.69056 257.016 5.87448 257.641 4.93959L257.643 4.93659Z" fill="#A3A3A3"/>
<path d="M313.73 5.4101L312.45 6.4101L307 10.4601L301.55 6.3701L300.27 5.3701C299.968 5.12064 299.6 4.96514 299.211 4.92285C298.822 4.88056 298.429 4.95334 298.081 5.13218C297.733 5.31102 297.445 5.58806 297.253 5.92897C297.061 6.26988 296.973 6.65969 297 7.0501V18.6401C297 19.0008 297.143 19.3467 297.398 19.6018C297.653 19.8568 297.999 20.0001 298.36 20.0001H301.55V12.2801L307 16.3701L312.45 12.2801V20.0001H315.64C316.001 20.0001 316.347 19.8568 316.602 19.6018C316.857 19.3467 317 19.0008 317 18.6401V7.0501C317.019 6.66306 316.925 6.2789 316.729 5.94432C316.534 5.60974 316.245 5.33914 315.899 5.16543C315.553 4.99171 315.163 4.92235 314.778 4.96579C314.393 5.00923 314.029 5.16358 313.73 5.4101Z" fill="#A3A3A3"/>
<defs>
<clipPath id="clip0_32_419">
<rect width="12" height="24" fill="white" transform="translate(0 2)"/>
</clipPath>
</defs>
</svg>
